<svg xmlns="http://www.w3.org/2000/svg" xmlns:xlink="http://www.w3.org/1999/xlink" width="18" height="18" viewBox="0 0 18 18">
  <defs>
    <linearGradient id="linear-gradient" x1="0.5" y1="0.008" x2="0.5" y2="0.998" gradientUnits="objectBoundingBox">
      <stop offset="0" stop-color="#e09b3d"/>
      <stop offset="0.3" stop-color="#c74c4d"/>
      <stop offset="0.6" stop-color="#c21975"/>
      <stop offset="1" stop-color="#7024c4"/>
    </linearGradient>
  </defs>
  <path id="Path_743" data-name="Path 743" d="M12.638,0H5.362A5.368,5.368,0,0,0,0,5.362v7.275A5.368,5.368,0,0,0,5.362,18h7.275A5.368,5.368,0,0,0,18,12.638V5.362A5.368,5.368,0,0,0,12.638,0Zm3.551,12.638a3.552,3.552,0,0,1-3.551,3.551H5.362a3.552,3.552,0,0,1-3.551-3.551V5.362A3.551,3.551,0,0,1,5.362,1.811h7.275a3.551,3.551,0,0,1,3.551,3.551v7.275Z" fill="url(#linear-gradient)"/>
</svg>
